<svg width="196.5mm" height="74.001mm" version="1.1" viewBox="0 0 196.5 74.001" xmlns="http://www.w3.org/2000/svg" xmlns:cc="http://creativecommons.org/ns#" xmlns:dc="http://purl.org/dc/elements/1.1/" xmlns:rdf="http://www.w3.org/1999/02/22-rdf-syntax-ns#">
<metadata>
<rdf:RDF>
<cc:Work rdf:about="">
<dc:format>image/svg+xml</dc:format>
<dc:type rdf:resource="http://purl.org/dc/dcmitype/StillImage"/>
<dc:title/>
</cc:Work>
</rdf:RDF>
</metadata>
<g>
<rect x=".25011" y=".25012" width="24.5" height="24.5" fill="none" stroke="currentColor" stroke-dashoffset="94.488" stroke-miterlimit="10" stroke-width=".50022"/>
<rect x="24.75" y=".25012" width="24.5" height="24.5" fill="none" stroke="currentColor" stroke-dashoffset="94.488" stroke-miterlimit="10" stroke-width=".50022"/>
<rect x="49.25" y=".25012" width="24.5" height="24.5" fill="none" stroke="currentColor" stroke-dashoffset="94.488" stroke-miterlimit="10" stroke-width=".50022"/>
<rect x="73.75" y=".25012" width="24.5" height="24.5" fill="none" stroke="currentColor" stroke-dashoffset="94.488" stroke-miterlimit="10" stroke-width=".50022"/>
<rect x=".25011" y="24.75" width="24.5" height="24.5" fill="none" stroke="currentColor" stroke-dashoffset="94.488" stroke-miterlimit="10" stroke-width=".50022"/>
<rect x="24.75" y="24.75" width="24.5" height="24.5" fill="none" stroke="currentColor" stroke-dashoffset="94.488" stroke-miterlimit="10" stroke-width=".50022"/>
<rect x="49.25" y="24.75" width="24.5" height="24.5" fill="none" stroke="currentColor" stroke-dashoffset="94.488" stroke-miterlimit="10" stroke-width=".50022"/>
<rect x="73.75" y="24.75" width="24.5" height="24.5" fill="none" stroke="currentColor" stroke-dashoffset="94.488" stroke-miterlimit="10" stroke-width=".50022"/>
<rect x=".25012" y="49.25" width="24.5" height="24.5" fill="none" stroke="currentColor" stroke-dashoffset="94.488" stroke-miterlimit="10" stroke-width=".50022"/>
<rect x="24.75" y="49.25" width="24.5" height="24.5" fill="none" stroke="currentColor" stroke-dashoffset="94.488" stroke-miterlimit="10" stroke-width=".50022"/>
<rect x="49.25" y="49.25" width="24.5" height="24.5" fill="none" stroke="currentColor" stroke-dashoffset="94.488" stroke-miterlimit="10" stroke-width=".50022"/>
<rect x="73.75" y="49.25" width="24.5" height="24.5" fill="none" stroke="currentColor" stroke-dashoffset="94.488" stroke-miterlimit="10" stroke-width=".50022"/>
<rect x="98.251" y="24.75" width="24.5" height="24.5" fill="none" stroke="currentColor" stroke-dashoffset="94.488" stroke-miterlimit="10" stroke-width=".50022"/>
<rect x="122.75" y="24.75" width="24.5" height="24.5" fill="none" stroke="currentColor" stroke-dashoffset="94.488" stroke-miterlimit="10" stroke-width=".50022"/>
<rect x="147.25" y="24.75" width="24.5" height="24.5" fill="none" stroke="currentColor" stroke-dashoffset="94.488" stroke-miterlimit="10" stroke-width=".50022"/>
<rect x="171.75" y="24.75" width="24.5" height="24.5" fill="none" stroke="currentColor" stroke-dashoffset="94.488" stroke-miterlimit="10" stroke-width=".50022"/>
<rect x="147.25" y=".25011" width="24.5" height="24.5" fill="none" stroke="currentColor" stroke-dashoffset="94.488" stroke-miterlimit="10" stroke-width=".50022"/>
<rect x="171.75" y=".25011" width="24.5" height="24.5" fill="none" stroke="currentColor" stroke-dashoffset="94.488" stroke-miterlimit="10" stroke-width=".50022"/>
<rect x="147.25" y="49.25" width="24.5" height="24.5" fill="none" stroke="currentColor" stroke-dashoffset="94.488" stroke-miterlimit="10" stroke-width=".50022"/>
<rect x="171.75" y="49.25" width="24.5" height="24.5" fill="none" stroke="currentColor" stroke-dashoffset="94.488" stroke-miterlimit="10" stroke-width=".50022"/>
<path d="m73.75 24.75 24.5 24.5" fill="none" stroke="currentColor" stroke-width=".50022"/>
<path d="m73.75 49.25 24.5-24.5" fill="none" stroke="currentColor" stroke-width=".50022"/>
<ellipse cx="86" cy="37" rx="4.7478" ry="4.7478" fill="none" stroke="currentColor" stroke-dashoffset="94.488" stroke-width=".50445"/>
<circle cx="86" cy="37" r="7.2505" fill="none" stroke="currentColor" stroke-dashoffset="94.488" stroke-width=".49904"/>
<circle cx="86" cy="37" r="9.7502" fill="none" stroke="currentColor" stroke-dashoffset="94.488" stroke-width=".49959"/>
<path d="m0.25011 0.25012 24.5 24.5" fill="none" stroke="currentColor" stroke-width=".50022"/>
<path d="m0.25012 24.75 24.5-24.5" fill="none" stroke="currentColor" stroke-width=".50022"/>
<ellipse cx="12.5" cy="12.5" rx="4.7478" ry="4.7478" fill="none" stroke="currentColor" stroke-dashoffset="94.488" stroke-width=".50445"/>
<circle cx="12.5" cy="12.5" r="7.2505" fill="none" stroke="currentColor" stroke-dashoffset="94.488" stroke-width=".49904"/>
<circle cx="12.5" cy="12.5" r="9.7502" fill="none" stroke="currentColor" stroke-dashoffset="94.488" stroke-width=".49959"/>
<path d="m0.25012 49.25 24.5 24.5" fill="none" stroke="currentColor" stroke-width=".50022"/>
<path d="m0.25013 73.75 24.5-24.5" fill="none" stroke="currentColor" stroke-width=".50022"/>
<ellipse cx="12.5" cy="61.5" rx="4.7478" ry="4.7478" fill="none" stroke="currentColor" stroke-dashoffset="94.488" stroke-width=".50445"/>
<circle cx="12.5" cy="61.5" r="7.2505" fill="none" stroke="currentColor" stroke-dashoffset="94.488" stroke-width=".49904"/>
<circle cx="12.5" cy="61.5" r="9.7502" fill="none" stroke="currentColor" stroke-dashoffset="94.488" stroke-width=".49959"/>
<path d="m147.25 0.25011 24.5 24.5" fill="none" stroke="currentColor" stroke-width=".50022"/>
<path d="m147.25 24.75 24.5-24.5" fill="none" stroke="currentColor" stroke-width=".50022"/>
<ellipse cx="159.5" cy="12.5" rx="4.7478" ry="4.7478" fill="none" stroke="currentColor" stroke-dashoffset="94.488" stroke-width=".50445"/>
<circle cx="159.5" cy="12.5" r="7.2505" fill="none" stroke="currentColor" stroke-dashoffset="94.488" stroke-width=".49904"/>
<circle cx="159.5" cy="12.5" r="9.7502" fill="none" stroke="currentColor" stroke-dashoffset="94.488" stroke-width=".49959"/>
<path d="m147.25 49.25 24.5 24.5" fill="none" stroke="currentColor" stroke-width=".50022"/>
<path d="m147.25 73.75 24.5-24.5" fill="none" stroke="currentColor" stroke-width=".50022"/>
<ellipse cx="159.5" cy="61.5" rx="4.7478" ry="4.7478" fill="none" stroke="currentColor" stroke-dashoffset="94.488" stroke-width=".50445"/>
<circle cx="159.5" cy="61.5" r="7.2505" fill="none" stroke="currentColor" stroke-dashoffset="94.488" stroke-width=".49904"/>
<circle cx="159.5" cy="61.5" r="9.7502" fill="none" stroke="currentColor" stroke-dashoffset="94.488" stroke-width=".49959"/>
<path d="m110.77 12.223h-97.976v19.492h170.83v-19.252h-41.645" fill="none" stroke="#ff3f00"/>
<path d="m111.55 61.244h-98.937v-18.952h171.17v19.035h-40.957" fill="none" stroke="#00ff7f"/>
<path d="m139 12.462 4.505-2.6009v2.6009 2.6009l-2.2525-1.3005z" fill="#ff3f00" stroke="#ff3f00" stroke-dashoffset="94.488"/>
<path d="m139 61.327 4.505-2.6009v2.6009 2.6009l-2.2525-1.3005z" fill="#00ff7f" stroke="#00ff7f" stroke-dashoffset="94.488"/>
</g>
</svg>
